<mxfile host="app.diagrams.net" modified="2023-08-29T14:19:39.171Z" agent="Mozilla/5.0 (Macintosh; Intel Mac OS X 10_15_7) AppleWebKit/537.36 (KHTML, like Gecko) Chrome/116.0.0.0 Safari/537.36" etag="SfW8rtM2G0OXRO8B0APd" version="21.6.9" type="device">
  <diagram name="Page-1" id="3Da-K6MAal7oWcjGSvR0">
    <mxGraphModel dx="587" dy="210" grid="1" gridSize="10" guides="1" tooltips="1" connect="1" arrows="1" fold="1" page="1" pageScale="1" pageWidth="500" pageHeight="350" math="0" shadow="0">
      <root>
        <mxCell id="0" />
        <mxCell id="1" parent="0" />
        <mxCell id="_nBWBaSlA80PKWS4ckmK-44" value="" style="rounded=0;whiteSpace=wrap;html=1;fillColor=#fff2cc;strokeColor=none;" parent="1" vertex="1">
          <mxGeometry x="130" y="390" width="250" height="170" as="geometry" />
        </mxCell>
        <mxCell id="ApE8lTeV0Uj58Px4gvST-1" value="0" style="rounded=0;whiteSpace=wrap;html=1;fontFamily=Verdana;" parent="1" vertex="1">
          <mxGeometry x="240" y="435" width="20" height="20" as="geometry" />
        </mxCell>
        <mxCell id="ApE8lTeV0Uj58Px4gvST-2" value="0" style="rounded=0;whiteSpace=wrap;html=1;fontFamily=Verdana;" parent="1" vertex="1">
          <mxGeometry x="240" y="455" width="20" height="20" as="geometry" />
        </mxCell>
        <mxCell id="ApE8lTeV0Uj58Px4gvST-5" value="x" style="ellipse;whiteSpace=wrap;html=1;aspect=fixed;" parent="1" vertex="1">
          <mxGeometry x="160" y="435" width="20" height="20" as="geometry" />
        </mxCell>
        <mxCell id="ApE8lTeV0Uj58Px4gvST-6" value="Â·" style="rounded=0;whiteSpace=wrap;html=1;fontFamily=Verdana;strokeColor=#000000;" parent="1" vertex="1">
          <mxGeometry x="200" y="435" width="20" height="20" as="geometry" />
        </mxCell>
        <mxCell id="ApE8lTeV0Uj58Px4gvST-7" value="1" style="rounded=0;whiteSpace=wrap;html=1;fontFamily=Verdana;" parent="1" vertex="1">
          <mxGeometry x="200" y="455" width="20" height="20" as="geometry" />
        </mxCell>
        <mxCell id="ApE8lTeV0Uj58Px4gvST-8" value="" style="endArrow=blockThin;html=1;exitX=1;exitY=0.5;exitDx=0;exitDy=0;entryX=0;entryY=0.5;entryDx=0;entryDy=0;rounded=0;endFill=1;" parent="1" source="ApE8lTeV0Uj58Px4gvST-5" target="ApE8lTeV0Uj58Px4gvST-6" edge="1">
          <mxGeometry width="50" height="50" relative="1" as="geometry">
            <mxPoint x="300" y="645" as="sourcePoint" />
            <mxPoint x="350" y="595" as="targetPoint" />
          </mxGeometry>
        </mxCell>
        <mxCell id="ApE8lTeV0Uj58Px4gvST-9" value="" style="endArrow=blockThin;html=1;rounded=0;entryX=0;entryY=0.5;entryDx=0;entryDy=0;endFill=1;" parent="1" source="ApE8lTeV0Uj58Px4gvST-6" target="ApE8lTeV0Uj58Px4gvST-1" edge="1">
          <mxGeometry width="50" height="50" relative="1" as="geometry">
            <mxPoint x="190" y="455" as="sourcePoint" />
            <mxPoint x="210" y="455" as="targetPoint" />
          </mxGeometry>
        </mxCell>
        <mxCell id="ApE8lTeV0Uj58Px4gvST-12" value="B" style="rounded=0;whiteSpace=wrap;html=1;fontFamily=Verdana;strokeColor=#000000;" parent="1" vertex="1">
          <mxGeometry x="240" y="475" width="20" height="20" as="geometry" />
        </mxCell>
        <mxCell id="_nBWBaSlA80PKWS4ckmK-22" value="id" style="text;html=1;strokeColor=none;fillColor=none;align=center;verticalAlign=middle;whiteSpace=wrap;rounded=0;fillOpacity=75;strokeOpacity=75;textOpacity=50;" parent="1" vertex="1">
          <mxGeometry x="160" y="470" width="20" height="20" as="geometry" />
        </mxCell>
        <mxCell id="_nBWBaSlA80PKWS4ckmK-24" value="" style="endArrow=openThin;html=1;rounded=0;entryX=0;entryY=0.5;entryDx=0;entryDy=0;exitX=1;exitY=0.5;exitDx=0;exitDy=0;endFill=0;strokeOpacity=50;fillOpacity=100;" parent="1" source="_nBWBaSlA80PKWS4ckmK-22" target="ApE8lTeV0Uj58Px4gvST-7" edge="1">
          <mxGeometry width="50" height="50" relative="1" as="geometry">
            <mxPoint x="350" y="610" as="sourcePoint" />
            <mxPoint x="400" y="560" as="targetPoint" />
          </mxGeometry>
        </mxCell>
        <mxCell id="_nBWBaSlA80PKWS4ckmK-25" value="Before value" style="text;html=1;strokeColor=none;fillColor=none;align=center;verticalAlign=middle;whiteSpace=wrap;rounded=0;textOpacity=50;" parent="1" vertex="1">
          <mxGeometry x="280" y="420" width="80" height="20" as="geometry" />
        </mxCell>
        <mxCell id="_nBWBaSlA80PKWS4ckmK-26" value="After value" style="text;html=1;strokeColor=none;fillColor=none;align=center;verticalAlign=middle;whiteSpace=wrap;rounded=0;textOpacity=50;" parent="1" vertex="1">
          <mxGeometry x="280" y="455" width="70" height="20" as="geometry" />
        </mxCell>
        <mxCell id="_nBWBaSlA80PKWS4ckmK-27" value="Which value?" style="text;html=1;strokeColor=none;fillColor=none;align=center;verticalAlign=middle;whiteSpace=wrap;rounded=0;textOpacity=50;" parent="1" vertex="1">
          <mxGeometry x="280" y="490" width="80" height="20" as="geometry" />
        </mxCell>
        <mxCell id="_nBWBaSlA80PKWS4ckmK-28" value="" style="endArrow=openThin;html=1;rounded=0;entryX=1;entryY=0.5;entryDx=0;entryDy=0;exitX=0;exitY=0.5;exitDx=0;exitDy=0;endFill=0;strokeOpacity=50;" parent="1" source="_nBWBaSlA80PKWS4ckmK-26" target="ApE8lTeV0Uj58Px4gvST-2" edge="1">
          <mxGeometry width="50" height="50" relative="1" as="geometry">
            <mxPoint x="190" y="500" as="sourcePoint" />
            <mxPoint x="210" y="485" as="targetPoint" />
          </mxGeometry>
        </mxCell>
        <mxCell id="_nBWBaSlA80PKWS4ckmK-29" value="" style="endArrow=openThin;html=1;rounded=0;entryX=1;entryY=0.5;entryDx=0;entryDy=0;exitX=0;exitY=0.5;exitDx=0;exitDy=0;endFill=0;strokeOpacity=50;" parent="1" source="_nBWBaSlA80PKWS4ckmK-27" target="ApE8lTeV0Uj58Px4gvST-12" edge="1">
          <mxGeometry width="50" height="50" relative="1" as="geometry">
            <mxPoint x="200" y="510" as="sourcePoint" />
            <mxPoint x="220" y="495" as="targetPoint" />
          </mxGeometry>
        </mxCell>
        <mxCell id="_nBWBaSlA80PKWS4ckmK-30" value="" style="endArrow=openThin;html=1;rounded=0;entryX=1;entryY=0.5;entryDx=0;entryDy=0;exitX=0;exitY=0.5;exitDx=0;exitDy=0;endFill=0;strokeOpacity=50;" parent="1" source="_nBWBaSlA80PKWS4ckmK-25" target="ApE8lTeV0Uj58Px4gvST-1" edge="1">
          <mxGeometry width="50" height="50" relative="1" as="geometry">
            <mxPoint x="210" y="520" as="sourcePoint" />
            <mxPoint x="230" y="505" as="targetPoint" />
          </mxGeometry>
        </mxCell>
        <mxCell id="_nBWBaSlA80PKWS4ckmK-33" value="loc" style="text;html=1;strokeColor=none;fillColor=none;align=center;verticalAlign=middle;whiteSpace=wrap;rounded=0;textOpacity=50;" parent="1" vertex="1">
          <mxGeometry x="190" y="400" width="40" height="20" as="geometry" />
        </mxCell>
        <mxCell id="_nBWBaSlA80PKWS4ckmK-34" value="" style="endArrow=openThin;html=1;rounded=0;entryX=0.5;entryY=0;entryDx=0;entryDy=0;exitX=0.5;exitY=1;exitDx=0;exitDy=0;endFill=0;strokeOpacity=50;" parent="1" source="_nBWBaSlA80PKWS4ckmK-33" target="ApE8lTeV0Uj58Px4gvST-6" edge="1">
          <mxGeometry width="50" height="50" relative="1" as="geometry">
            <mxPoint x="190" y="485" as="sourcePoint" />
            <mxPoint x="210" y="475" as="targetPoint" />
          </mxGeometry>
        </mxCell>
        <mxCell id="_nBWBaSlA80PKWS4ckmK-35" value="state" style="text;html=1;strokeColor=none;fillColor=none;align=center;verticalAlign=middle;whiteSpace=wrap;rounded=0;textOpacity=50;" parent="1" vertex="1">
          <mxGeometry x="230" y="400" width="40" height="20" as="geometry" />
        </mxCell>
        <mxCell id="_nBWBaSlA80PKWS4ckmK-36" value="" style="endArrow=openThin;html=1;rounded=0;entryX=0.5;entryY=0;entryDx=0;entryDy=0;exitX=0.5;exitY=1;exitDx=0;exitDy=0;endFill=0;strokeOpacity=50;" parent="1" source="_nBWBaSlA80PKWS4ckmK-35" target="ApE8lTeV0Uj58Px4gvST-1" edge="1">
          <mxGeometry width="50" height="50" relative="1" as="geometry">
            <mxPoint x="220" y="430" as="sourcePoint" />
            <mxPoint x="220" y="445" as="targetPoint" />
          </mxGeometry>
        </mxCell>
      </root>
    </mxGraphModel>
  </diagram>
</mxfile>
